<svg xmlns="http://www.w3.org/2000/svg" width="36" height="36" viewBox="0 0 36 36">
    <g fill="none" fill-rule="evenodd">
        <g fill-rule="nonzero">
            <g>
                <g transform="translate(-152 -242) translate(32 242) translate(120)">
                    <path fill="#FFCC4D" d="M36 18c0 9.941-8.059 18-18 18-9.94 0-18-8.059-18-18C0 8.06 8.06 0 18 0c9.941 0 18 8.06 18 18"/>
                    <ellipse cx="11.5" cy="16.5" fill="#664500" rx="2.5" ry="3.5"/>
                    <ellipse cx="24.5" cy="16.5" fill="#664500" rx="2.5" ry="3.5"/>
                    <path fill="#664500" d="M25 26H11c-.552 0-1-.447-1-1 0-.553.448-1 1-1h14c.553 0 1 .447 1 1 0 .553-.447 1-1 1z"/>
                </g>
            </g>
        </g>
    </g>
</svg>
