<?xml version="1.0" encoding="UTF-8" standalone="no"?>
<svg
   xmlns:dc="http://purl.org/dc/elements/1.1/"
   xmlns:cc="http://creativecommons.org/ns#"
   xmlns:rdf="http://www.w3.org/1999/02/22-rdf-syntax-ns#"
   xmlns:svg="http://www.w3.org/2000/svg"
   xmlns="http://www.w3.org/2000/svg"
   xmlns:sodipodi="http://sodipodi.sourceforge.net/DTD/sodipodi-0.dtd"
   xmlns:inkscape="http://www.inkscape.org/namespaces/inkscape"
   id="svg11772"
   sodipodi:docname="ranking-active-add.svg"
   viewBox="0 0 400 400"
   version="1.1"
   inkscape:version="0.92.3 (2405546, 2018-03-11)">
  <defs
     id="defs11774">
    <linearGradient
       id="linearGradient11756"
       y2="367.88"
       gradientUnits="userSpaceOnUse"
       x2="315.47"
       y1="287.49"
       x1="241.41"
       inkscape:collect="always">
      <stop
         id="stop4158-3"
         style="stop-color:#ffffff"
         offset="0" />
      <stop
         id="stop4160-9"
         style="stop-color:#ffffff;stop-opacity:0"
         offset="1" />
    </linearGradient>
    <filter
       id="filter6126-1"
       inkscape:collect="always"
       color-interpolation-filters="sRGB">
      <feGaussianBlur
         id="feGaussianBlur6128-9"
         stdDeviation="0.53035713"
         inkscape:collect="always" />
    </filter>
    <linearGradient
       id="linearGradient11758"
       y2="391.45"
       gradientUnits="userSpaceOnUse"
       x2="342"
       y1="300.86"
       x1="275.61"
       inkscape:collect="always">
      <stop
         id="stop11658"
         style="stop-color:#848484"
         offset="0" />
      <stop
         id="stop11660"
         style="stop-color:#ffffff"
         offset="1" />
    </linearGradient>
    <radialGradient
       id="radialGradient11760"
       gradientUnits="userSpaceOnUse"
       cy="386.57"
       cx="312.78"
       gradientTransform="matrix(-.59327 -.59327 .71505 -.71505 243.27 849.03)"
       r="53.036"
       inkscape:collect="always">
      <stop
         id="stop7113-4"
         style="stop-color:#ffffff;stop-opacity:.40816"
         offset="0" />
      <stop
         id="stop7115-4"
         style="stop-color:#ffffff;stop-opacity:0"
         offset="1" />
    </radialGradient>
    <linearGradient
       id="linearGradient12345"
       y2="338.82"
       gradientUnits="userSpaceOnUse"
       y1="286.67"
       gradientTransform="matrix(.95534 0 0 .95534 -212.9 590.67)"
       x2="300.27"
       x1="255.32"
       inkscape:collect="always">
      <stop
         id="stop4150-7"
         style="stop-color:#ffffff"
         offset="0" />
      <stop
         id="stop4152-3"
         style="stop-color:#ffffff;stop-opacity:0"
         offset="1" />
    </linearGradient>
  </defs>
  <sodipodi:namedview
     id="base"
     bordercolor="#666666"
     inkscape:pageshadow="2"
     inkscape:window-y="27"
     pagecolor="#ffffff"
     inkscape:window-height="2096"
     inkscape:window-maximized="0"
     inkscape:zoom="1.4"
     inkscape:window-x="0"
     showgrid="false"
     borderopacity="1.0"
     inkscape:current-layer="layer1"
     inkscape:cx="248.40926"
     inkscape:cy="339.08107"
     inkscape:window-width="1920"
     inkscape:pageopacity="0.0"
     inkscape:document-units="px" />
  <g
     id="layer1"
     inkscape:label="Layer 1"
     inkscape:groupmode="layer"
     transform="translate(0,-652.36)">
    <g
       id="g11671"
       transform="matrix(2.9051,0,0,2.9051,4.337,-1765.4)">
      <circle
         id="path11122"
         style="fill:#999999"
         transform="matrix(0.97354,0,0,0.97354,-228.92,563.99)"
         cx="303.75"
         cy="346.11218"
         r="53.035713" />
      <circle
         id="path11124"
         style="fill:url(#linearGradient11756)"
         transform="matrix(0.9596,0,0,0.9596,-224.69,568.82)"
         cx="303.75"
         cy="346.11218"
         r="53.035713" />
      <circle
         id="path11126"
         style="fill:#ececec;filter:url(#filter6126-1)"
         transform="matrix(0.87355,0,0,0.87355,-198.55,598.6)"
         cx="303.75"
         cy="346.11218"
         r="53.035713" />
      <circle
         id="path11128"
         style="fill:#999999;filter:url(#filter6126-1)"
         transform="matrix(0.83838,0,0,0.83838,-187.87,610.77)"
         cx="303.75"
         cy="346.11218"
         r="53.035713" />
      <circle
         id="path11144"
         style="fill:url(#linearGradient11758)"
         transform="matrix(0.80587,0,0,0.80587,-177.99,622.02)"
         cx="303.75"
         cy="346.11218"
         r="53.035713" />
      <circle
         id="path11132"
         style="fill:url(#radialGradient11760)"
         transform="matrix(0.75825,0,0,0.75825,-162.27,640.52)"
         cx="303.75"
         cy="346.11218"
         r="53.035713" />
      <path
         id="path11134"
         style="opacity:0.31771001;fill:url(#linearGradient12345)"
         inkscape:connector-curvature="0"
         d="m 65.786,860.76 c -13.331,0.30069 -26.186,7.358 -33.336,19.742 -7.6903,13.32 -6.7139,29.266 1.1545,41.331 0.85306,-26.532 21.132,-46.515 46.324,-45.054 8.2589,0.47907 16.054,3.2001 22.859,7.5908 -3.2578,-7.4498 -8.8171,-13.953 -16.394,-18.327 -6.4867,-3.7451 -13.625,-5.4393 -20.608,-5.2818 z" />
    </g>
    <g
       style="fill:#808080;fill-rule:nonzero;stroke-width:0.09605808"
       id="g32"
       transform="matrix(10.410368,0,0,10.410368,208.88391,664.80404)">
      <path
         inkscape:connector-curvature="0"
         d="M 15.406,6.906 H 10.094 V 1.594 C 10.094,0.714 9.38,0 8.5,0 7.62,0 6.906,0.713 6.906,1.594 V 6.906 H 1.594 C 0.714,6.906 0,7.62 0,8.5 c 0,0.88 0.713,1.594 1.594,1.594 h 5.312 v 5.312 C 6.906,16.286 7.62,17 8.5,17 c 0.88,0 1.594,-0.713 1.594,-1.594 v -5.312 h 5.312 C 16.286,10.094 17,9.38 17,8.5 17,7.62 16.287,6.906 15.406,6.906 Z"
         id="use28"
         style="fill:#808080;stroke-width:0.09605808" />
      <path
         style="fill:#808080;fill-opacity:0.25;fill-rule:evenodd;stroke:#ffffff;stroke-width:0.19211616"
         inkscape:connector-curvature="0"
         id="path30"
         d="m 8.5,-1 c 0.716,0 1.365,0.29 1.834,0.76 0.47,0.469 0.76,1.117 0.76,1.834 v 0 4.312 h 4.312 c 0.717,0 1.365,0.29 1.834,0.76 0.47,0.47 0.76,1.118 0.76,1.834 0,0.716 -0.29,1.365 -0.76,1.834 -0.469,0.47 -1.117,0.76 -1.834,0.76 v 0 h -4.312 v 4.312 c 0,0.717 -0.29,1.365 -0.76,1.834 C 9.864,17.71 9.216,18 8.5,18 7.784,18 7.135,17.71 6.666,17.24 6.196,16.771 5.906,16.123 5.906,15.406 v 0 -4.312 H 1.594 c -0.717,0 -1.365,-0.29 -1.834,-0.76 C -0.71,9.864 -1,9.216 -1,8.5 -1,7.784 -0.71,7.135 -0.24,6.666 0.229,6.196 0.877,5.906 1.594,5.906 H 5.906 V 1.594 c 0,-0.717 0.29,-1.365 0.76,-1.834 C 7.136,-0.71 7.784,-1 8.5,-1 Z" />
    </g>
  </g>
  <metadata
     id="metadata27">
    <rdf:RDF>
      <cc:Work>
        <dc:format>image/svg+xml</dc:format>
        <dc:type
           rdf:resource="http://purl.org/dc/dcmitype/StillImage" />
        <cc:license
           rdf:resource="http://creativecommons.org/licenses/publicdomain/" />
        <dc:publisher>
          <cc:Agent
             rdf:about="http://openclipart.org/">
            <dc:title>Openclipart</dc:title>
          </cc:Agent>
        </dc:publisher>
        <dc:title></dc:title>
        <dc:date>2011-02-26T02:58:54</dc:date>
        <dc:description />
        <dc:source>https://openclipart.org/detail/122743/glossy-lightgray-button-by-ricardomaia</dc:source>
        <dc:creator>
          <cc:Agent>
            <dc:title>ricardomaia</dc:title>
          </cc:Agent>
        </dc:creator>
        <dc:subject>
          <rdf:Bag>
            <rdf:li>button</rdf:li>
            <rdf:li>glass</rdf:li>
            <rdf:li>glossy</rdf:li>
          </rdf:Bag>
        </dc:subject>
      </cc:Work>
      <cc:License
         rdf:about="http://creativecommons.org/licenses/publicdomain/">
        <cc:permits
           rdf:resource="http://creativecommons.org/ns#Reproduction" />
        <cc:permits
           rdf:resource="http://creativecommons.org/ns#Distribution" />
        <cc:permits
           rdf:resource="http://creativecommons.org/ns#DerivativeWorks" />
      </cc:License>
    </rdf:RDF>
  </metadata>
</svg>
