<svg xmlns="http://www.w3.org/2000/svg" xmlns:xlink="http://www.w3.org/1999/xlink" width="34" height="32" viewBox="0 0 34 32">
    <defs>
        <ellipse id="7rpxyghisb" cx="8.5" cy="11.5" rx="1.5" ry="2.5"/>
        <ellipse id="2cs50prz0c" cx="16.5" cy="11.5" rx="1.5" ry="2.5"/>
        <path id="sfgr2ldtba" d="M25 12.5C25 19.403 19.403 25 12.5 25S0 19.403 0 12.5 5.597 0 12.5 0 25 5.597 25 12.5"/>
        <path id="esol8io1od" d="M15.406 6.906h-5.312V1.594C10.094.714 9.38 0 8.5 0c-.88 0-1.594.713-1.594 1.594v5.312H1.594C.714 6.906 0 7.62 0 8.5c0 .88.713 1.594 1.594 1.594h5.312v5.312c0 .88.714 1.594 1.594 1.594.88 0 1.594-.713 1.594-1.594v-5.312h5.312c.88 0 1.594-.714 1.594-1.594 0-.88-.713-1.594-1.594-1.594z"/>
    </defs>
    <g fill="none" fill-rule="evenodd">
        <g fill-rule="nonzero">
            <g>
                <g>
                    <g>
                        <g stroke-width="2" transform="translate(-319 -424) translate(20 426) translate(300) translate(0 4)">
                            <use fill="#FFF" stroke="#FFF" xlink:href="#sfgr2ldtba"/>
                            <use stroke="#333" stroke-opacity=".25" xlink:href="#sfgr2ldtba"/>
                        </g>
                        <g transform="translate(-319 -424) translate(20 426) translate(300) translate(0 4)">
                            <use fill="#FFF" xlink:href="#7rpxyghisb"/>
                            <use fill="#333" fill-opacity=".25" xlink:href="#7rpxyghisb"/>
                        </g>
                        <g transform="translate(-319 -424) translate(20 426) translate(300) translate(0 4)">
                            <use fill="#FFF" xlink:href="#2cs50prz0c"/>
                            <use fill="#333" fill-opacity=".25" xlink:href="#2cs50prz0c"/>
                        </g>
                    </g>
                    <g transform="translate(-319 -424) translate(20 426) translate(300) translate(14)">
                        <use fill="#FFF" xlink:href="#esol8io1od"/>
                        <path fill="#333" fill-opacity=".25" fill-rule="evenodd" stroke="#FFF" stroke-width="2" d="M8.5-1c.716 0 1.365.29 1.834.76.47.469.76 1.117.76 1.834h0v4.312h4.312c.717 0 1.365.29 1.834.76.47.47.76 1.118.76 1.834s-.29 1.365-.76 1.834c-.469.47-1.117.76-1.834.76h0-4.312v4.312c0 .717-.29 1.365-.76 1.834-.47.47-1.118.76-1.834.76s-1.365-.29-1.834-.76c-.47-.469-.76-1.117-.76-1.834h0v-4.312H1.594c-.717 0-1.365-.29-1.834-.76C-.71 9.864-1 9.216-1 8.5s.29-1.365.76-1.834c.469-.47 1.117-.76 1.834-.76h4.312V1.594c0-.717.29-1.365.76-1.834C7.136-.71 7.784-1 8.5-1h0z"/>
                    </g>
                </g>
            </g>
        </g>
    </g>
</svg>
