<svg xmlns="http://www.w3.org/2000/svg" width="19" height="18" viewBox="0 0 19 18">
    <g fill="none" fill-rule="evenodd" opacity=".5">
        <g fill="currentColor" fill-rule="nonzero">
            <g>
                <path d="M10.665 65.972c4.874 0 8.907-4.027 8.907-8.9 0-4.875-4.04-8.901-8.914-8.901-4.867 0-8.894 4.026-8.894 8.9 0 4.874 4.033 8.9 8.9 8.9zm0-1.272c-4.225 0-7.622-3.404-7.622-7.629 0-4.224 3.39-7.629 7.615-7.629 4.231 0 7.629 3.405 7.635 7.63.007 4.224-3.397 7.628-7.628 7.628zM8.1 56.224c.506 0 .916-.445.916-1.067 0-.615-.41-1.06-.916-1.06-.499 0-.902.445-.902 1.06 0 .622.403 1.067.902 1.067zm5.154 0c.5 0 .916-.445.916-1.067 0-.615-.417-1.06-.916-1.06-.499 0-.902.445-.902 1.06 0 .622.403 1.067.902 1.067zm-2.59 5.079c2.03 0 3.329-1.436 3.329-2.003 0-.103-.09-.157-.171-.09-.615.534-1.668 1.04-3.158 1.04-1.484 0-2.564-.526-3.159-1.032-.082-.069-.164-.02-.164.082 0 .567 1.3 2.003 3.323 2.003z" transform="translate(-21 -212) translate(20 164)"/>
            </g>
        </g>
    </g>
</svg>
